<svg id="Capa_1" enable-background="new 0 0 512 512" height="512" viewBox="0 0 512 512" width="512" xmlns="http://www.w3.org/2000/svg"><g><path d="m354.894 197.319h-197.788c-31.309 27.511-51.106 67.825-51.106 112.681v15c0 8.284 6.716 15 15 15h270c8.284 0 15-6.716 15-15v-15c0-44.856-19.797-85.17-51.106-112.681z" fill="#5e54ac"/><path d="m354.894 197.319h-98.894v142.681h135c8.284 0 15-6.716 15-15v-15c0-44.856-19.797-85.17-51.106-112.681z" fill="#453d81"/><path d="m256 340c-8.284 0-15-6.716-15-15v-50c0-8.284 6.716-15 15-15s15 6.716 15 15v50c0 8.284-6.716 15-15 15z" fill="#f2faff"/><path d="m271 325v-50c0-8.284-6.716-15-15-15v80c8.284 0 15-6.716 15-15z" fill="#c8eafa"/><path d="m446 340c-8.284 0-15-6.716-15-15v-92.5l-34-25.5c-6.627-4.971-7.971-14.373-3-21 4.971-6.626 14.373-7.969 21-3l40 30c3.777 2.833 6 7.278 6 12v100c0 8.284-6.716 15-15 15z" fill="#c8eafa"/><g><path d="m266.606 285.606 88.288-88.288c-26.421-23.216-61.04-37.318-98.894-37.318s-72.473 14.102-98.894 37.319l88.288 88.288c2.928 2.928 6.767 4.393 10.606 4.393s7.678-1.465 10.606-4.394z" fill="#f2faff"/></g><path d="m266.606 285.606 88.288-88.288c-26.421-23.216-61.04-37.318-98.894-37.318v130c3.839 0 7.678-1.465 10.606-4.394z" fill="#c8eafa"/><path d="m426 512h-340c-8.284 0-15-6.716-15-15v-90c0-8.284 6.716-15 15-15h340c8.284 0 15 6.716 15 15v90c0 8.284-6.716 15-15 15z" fill="#9d5e4a"/><path d="m441 497v-90c0-8.284-6.716-15-15-15h-170v120h170c8.284 0 15-6.716 15-15z" fill="#7d4a3b"/><g><g><path d="m171 15v60c0 8.284 6.716 15 15 15h140c8.284 0 15-6.716 15-15v-60z" fill="#5e54ac"/><path d="m326 90c8.284 0 15-6.716 15-15v-60h-85v75z" fill="#453d81"/></g><path d="m171 75v30c0 46.869 38.131 85 85 85s85-38.131 85-85v-30z" fill="#ffd6aa"/><g><path d="m256 190c46.869 0 85-38.131 85-85v-30h-85z" fill="#fac68f"/></g></g><path d="m376 100c-8.284 0-15-6.716-15-15v-55h-225c-8.284 0-15-6.716-15-15s6.716-15 15-15h240c8.284 0 15 6.716 15 15v70c0 8.284-6.716 15-15 15z" fill="#453d81"/><path d="m446 422h-380c-6.297 0-11.923-3.933-14.087-9.847l-30-82c-1.683-4.6-1.014-9.731 1.792-13.747 2.807-4.014 7.397-6.406 12.295-6.406h440c4.898 0 9.488 2.392 12.294 6.406 2.806 4.016 3.476 9.147 1.792 13.747l-30 82c-2.163 5.914-7.789 9.847-14.086 9.847z" fill="#bc8173"/><path d="m476 310h-220v112h190c6.297 0 11.923-3.933 14.087-9.847l30-82c1.683-4.6 1.014-9.731-1.792-13.747-2.807-4.014-7.397-6.406-12.295-6.406z" fill="#9d5e4a"/><g><path d="m361 30v55c0 8.284 6.716 15 15 15s15-6.716 15-15v-70c0-8.284-6.716-15-15-15h-120v30z" fill="#2e2654"/></g></g></svg>