<svg id="Capa_1" enable-background="new 0 0 512 512" height="512" viewBox="0 0 512 512" width="512" xmlns="http://www.w3.org/2000/svg"><g><g><g><path d="m296.8 376h-81.6l-34.801 105h151.201z" fill="#dfe7f4"/></g></g><path d="m256 481h75.601l-34.801-105h-40.8z" fill="#c7cfe1"/><g><path d="m512 406h-512v-390h512z" fill="#575f64"/></g><path d="m256 16h256v390h-256z" fill="#474f54"/><path d="m30 46h452v330h-452z" fill="#80d4ff"/><path d="m256 46h226v330h-226z" fill="#66b3ff"/><g id="_Online_Education_1_"><path d="m121 466h270v30h-270z" fill="#f0f7ff"/><g><path d="m391 181h30v135h-30z" fill="#dfe7f4"/></g></g><g><path d="m256 466h135v30h-135z" fill="#dfe7f4"/></g><g><path d="m256 324.057-105-42.012v-99.214l105 42.012 105-42.012v99.214z" fill="#474f54"/></g><path d="m361 282.045v-99.214l-105 42.012v99.214z" fill="#32393f"/><g><path d="m256 257.157-190.4-76.157 190.4-76.157 190.4 76.157z" fill="#575f64"/></g><path d="m446.4 181-190.4-76.157v152.314z" fill="#474f54"/></g></svg>