<svg id="Capa_1" enable-background="new 0 0 512 512" height="512" viewBox="0 0 512 512" width="512" xmlns="http://www.w3.org/2000/svg"><g><path d="m404.285 0h-296.571c-18.894 0-34.352 15.459-34.352 34.353v443.294c0 18.894 15.459 34.353 34.353 34.353h296.571c18.894 0 34.353-15.459 34.353-34.353v-443.294c-.001-18.894-15.46-34.353-34.354-34.353z" fill="#3f6d8e"/><path d="m108.388 477.647v-443.294c0-18.894 15.458-34.353 34.353-34.353h-35.026c-18.895 0-34.353 15.459-34.353 34.353v443.294c0 18.894 15.459 34.353 34.353 34.353h35.026c-18.895 0-34.353-15.459-34.353-34.353z" fill="#365e7d"/><g><path d="m262.652 484.509h-13.305c-4.267 0-7.726-3.459-7.726-7.726s3.459-7.726 7.726-7.726h13.305c4.267 0 7.726 3.459 7.726 7.726.001 4.267-3.458 7.726-7.726 7.726z" fill="#365e7d"/></g><path d="m392.628 256h-274.715l-11.057 3.458v188.044c0 .393.466.859.859.859h162.67l7.721-6.045h81.728l7.258 6.045h37.193c.394 0 .859-.465.859-.859 0-2.766 0-92.754 0-188.044z" fill="#d3effb"/><path d="m151.393 256h-33.48l-11.057 3.458v188.044c0 .393.466.859.859.859h43.677v-192.361z" fill="#b1e4f9"/><path d="m106.856 69.525v189.933h38.052l6.657-6.181h83.788l6.262 6.181h163.529c0-72.107 0-147.249 0-189.933z" fill="#e4f6ff"/><path d="m151.393 69.525h-44.537v189.933h38.052l6.485-6.02z" fill="#d3effb"/><path d="m212.799 183.008h-39.074c-15.915 0-28.816 12.902-28.816 28.816v47.633h96.707v-47.633c-.001-15.914-12.902-28.816-28.817-28.816z" fill="#dd636e"/><circle cx="193.261" cy="128.075" fill="#ffdecf" r="26.995"/><circle cx="318.738" cy="316.978" fill="#ffdecf" r="26.995"/><path d="m338.276 371.911h-39.074c-15.915 0-28.816 12.902-28.816 28.816v47.633h96.707v-47.633c-.001-15.915-12.903-28.816-28.817-28.816z" fill="#ffaa5b"/><path d="m200.852 183.008h-27.128c-15.915 0-28.816 12.902-28.816 28.816v47.633h27.128v-47.633c0-15.914 12.902-28.816 28.816-28.816z" fill="#da4a54"/><path d="m201.301 147.163c-10.542-10.542-10.542-27.634 0-38.177 1.69-1.69 3.551-3.106 5.524-4.255-10.333-6.013-23.801-4.597-32.652 4.255-10.542 10.542-10.542 27.635 0 38.177 8.852 8.852 22.32 10.268 32.652 4.255-1.973-1.148-3.833-2.564-5.524-4.255z" fill="#ffcebe"/><path d="m326.778 336.066c-10.542-10.542-10.542-27.634 0-38.177 1.69-1.69 3.551-3.106 5.524-4.255-10.333-6.013-23.801-4.597-32.652 4.255-10.542 10.542-10.542 27.635 0 38.177 8.852 8.852 22.32 10.268 32.652 4.255-1.973-1.149-3.833-2.564-5.524-4.255z" fill="#ffcebe"/><path d="m326.329 371.91h-27.128c-15.915 0-28.816 12.902-28.816 28.816v47.633h27.128v-47.633c0-15.914 12.902-28.816 28.816-28.816z" fill="#ff9838"/><g><path d="m355.268 123.877h-73.058c-4.267 0-7.726-3.459-7.726-7.726s3.459-7.726 7.726-7.726h73.058c4.267 0 7.726 3.459 7.726 7.726s-3.459 7.726-7.726 7.726z" fill="#3f6d8e"/></g><g><path d="m355.268 156.041h-73.058c-4.267 0-7.726-3.459-7.726-7.726s3.459-7.726 7.726-7.726h73.058c4.267 0 7.726 3.459 7.726 7.726s-3.459 7.726-7.726 7.726z" fill="#3f6d8e"/></g><g><path d="m355.268 188.206h-73.058c-4.267 0-7.726-3.459-7.726-7.726s3.459-7.726 7.726-7.726h73.058c4.267 0 7.726 3.459 7.726 7.726 0 4.266-3.459 7.726-7.726 7.726z" fill="#3f6d8e"/></g><g><path d="m355.268 220.37h-73.058c-4.267 0-7.726-3.459-7.726-7.726s3.459-7.726 7.726-7.726h73.058c4.267 0 7.726 3.459 7.726 7.726s-3.459 7.726-7.726 7.726z" fill="#3f6d8e"/></g><g><path d="m229.791 312.779h-73.058c-4.267 0-7.726-3.459-7.726-7.726s3.459-7.726 7.726-7.726h73.058c4.267 0 7.726 3.459 7.726 7.726s-3.459 7.726-7.726 7.726z" fill="#3f6d8e"/></g><g><path d="m229.791 344.944h-73.058c-4.267 0-7.726-3.459-7.726-7.726s3.459-7.726 7.726-7.726h73.058c4.267 0 7.726 3.459 7.726 7.726 0 4.266-3.459 7.726-7.726 7.726z" fill="#3f6d8e"/></g><g><path d="m229.791 377.108h-73.058c-4.267 0-7.726-3.459-7.726-7.726s3.459-7.726 7.726-7.726h73.058c4.267 0 7.726 3.459 7.726 7.726s-3.459 7.726-7.726 7.726z" fill="#3f6d8e"/></g><g><path d="m229.791 409.273h-73.058c-4.267 0-7.726-3.459-7.726-7.726s3.459-7.726 7.726-7.726h73.058c4.267 0 7.726 3.459 7.726 7.726 0 4.266-3.459 7.726-7.726 7.726z" fill="#3f6d8e"/></g><path d="m404.285 33.494h-253.923v37.061h254.781c0-21.409 0-34.925 0-36.203.001-.392-.465-.858-.858-.858z" fill="#b1e4f9"/><path d="m151.393 33.495h-43.677c-.394 0-.859.465-.859.858v36.203h44.536z" fill="#dd636e"/></g></svg>